<svg xmlns="http://www.w3.org/2000/svg" xmlns:xlink="http://www.w3.org/1999/xlink" version="1.1" id="Layer_1" x="0px" y="0px" width="32px" height="32px" viewBox="0 0 32 32" enable-background="new 0 0 32 32" xml:space="preserve">
<path d="M16,0.958C7.706,0.958,0.958,7.706,0.958,16S7.706,31.042,16,31.042S31.042,24.294,31.042,16S24.294,0.958,16,0.958zM16,28.042C9.36,28.042,3.958,22.64,3.958,16C3.958,9.36,9.36,3.958,16,3.958c6.64,0,12.042,5.402,12.042,12.042C28.042,22.64,22.64,28.042,16,28.042zM16.375,7.666h-0.75v2.168h0.75V7.666zM14.42,9.919l-0.305-2.146l-0.742,0.105l0.304,2.146L14.42,9.919zM11.172,8.403l0.603,2.083l0.721-0.208l-0.603-2.083L11.172,8.403zM9.066,9.232l0.89,1.978l0.684-0.308L9.751,8.925L9.066,9.232zM7.099,10.349l1.158,1.833l0.634-0.4L7.733,9.948L7.099,10.349zM5.307,11.73l1.404,1.652l0.571-0.485l-1.403-1.653L5.307,11.73zM17.58,9.919l0.742,0.105l0.304-2.146l-0.743-0.105L17.58,9.919zM19.503,10.277l0.72,0.208l0.602-2.083l-0.721-0.208L19.503,10.277zM21.356,10.901l0.685,0.308l0.887-1.979l-0.685-0.307L21.356,10.901zM24.26,9.945l-1.155,1.834l0.635,0.4l1.155-1.834L24.26,9.945zM26.113,11.24l-1.401,1.653l0.573,0.485l1.4-1.654L26.113,11.24zM17.335,21.636C16.949,21.392,16.491,10.834,16,10.834c-0.518,0-0.998,10.573-1.397,10.843c-0.666,0.449-1.103,1.21-1.103,2.073c0,1.381,1.119,2.5,2.5,2.5s2.5-1.119,2.5-2.5C18.5,22.859,18.035,22.078,17.335,21.636zM16,25.375c-0.897,0-1.625-0.728-1.625-1.625s0.728-1.625,1.625-1.625s1.625,0.728,1.625,1.625S16.897,25.375,16,25.375z"/>
</svg>